<svg t="1690294936693" class="icon" viewBox="0 0 1024 1024" version="1.1" xmlns="http://www.w3.org/2000/svg" p-id="2663" width="290" height="290"><path d="M394.9 271.1h-54.6c-3.1 0-5.7-2.5-5.7-5.7v-31.3c0-3.1 2.5-5.7 5.7-5.7h54.6c3.1 0 5.7 2.5 5.7 5.7v31.3c-0.1 3.1-2.6 5.7-5.7 5.7z m-48.8-11.4h43.1v-19.8h-43.1v19.8z" fill="#1076BB" p-id="2664"></path><path d="M378.9 239.7h-22.7c-3.1 0-5.7-2.5-5.7-5.7v-23.7c0-9.5-10.7-19.9-20.7-25.7l-1.9-0.9c-2.5-1.3-3.8-4.1-2.8-6.8l37-118.3c0.8-2.4 2.9-4 5.5-4 2.5 0 4.7 1.6 5.5 4l25.8 81.9 11.4 36.4c0.8 2.6-0.3 5.6-2.8 6.8l-1.9 0.9c-10.1 5.7-20.7 16.1-20.7 25.7V234c-0.3 3.3-2.8 5.7-6 5.7z m-17-11.4h11.3v-18.1c0-14.5 12.9-27.3 24.7-34.4L387.8 144l-20.3-64.5-30.2 96.4c11.8 7.1 24.7 20 24.7 34.4l-0.1 18zM393.2 254.6H342c-2.8 0-5.1-2.3-5.1-5.1s2.3-5.1 5.1-5.1h51.2c2.8 0 5.1 2.3 5.1 5.1-0.1 2.8-2.3 5.1-5.1 5.1z" fill="#1076BB" p-id="2665"></path><path d="M857.3 183.7h36.5v39.6h-36.5zM857.3 675.6v301.8c0 8.6-6.8 15.4-15.4 15.4h-431v-37h-21.7l15.2-420.7 126 39.1 76.4 132.3v35.8h20.7l3.4 5.7 10-5.7h145v-88.8l71.4 22.1zM814 183.7h43.3v39.6H814z" fill="#88D6F7" p-id="2666"></path><path d="M785.7 658.5v83.8h-145z" fill="#88D6F7" p-id="2667"></path><path d="M782.1 652.3l3.6 6.2-145 83.8h-13.3l-20.6-35.8V597.9zM606.8 348.5l41.3 71.7h-41.3v177.7l-76.4-23.8L470 469.8v-42.4z" fill="#88D6F7" p-id="2668"></path><path d="M606.8 597.9v108.6l-76.4-132.4zM470 427.4v42.4l-18.2-31.7zM414 267l-1 28.9h-21.4c-4.4 0-8 3.6-8 8v214.8c0 3.6 2.4 6.6 5.6 7.7l-1.2 3.8-36.4-11.3V303.8c0-4.4-3.6-8-8-8h-21.4l-1-28.9H414v0.1zM410.8 955.8v37.1h-86.4v-37.1H346l0.7 22.5h41.7l0.8-22.5z" fill="#88D6F7" p-id="2669"></path><path d="M404.6 526.5l-0.3 8.6L388 530l1.2-3.8c0.8 0.2 1.6 0.3 2.4 0.3h13z" fill="#88D6F7" p-id="2670"></path><path d="M404.3 535l-15.2 420.7h-43.2l-15.5-429.3h13.1c4.3 0 7.9-3.6 8-7.9l36.4 11.3 16.4 5.2zM389.2 955.8l-0.8 22.5h-41.7l-0.7-22.5z" fill="#88D6F7" p-id="2671"></path><path d="M329.9 512l21.7 6.7c-0.1 4.3-3.7 7.9-8 7.9h-13.1l-0.6-14.6zM330.4 526.5L346 955.8h-21.6v37.1h-75.6V486.8l16.3 5v34.7z" fill="#88D6F7" p-id="2672"></path><path d="M329.9 512l0.5 14.5h-65.3v-34.7zM177.2 488.5h71.7v504.3h-71.7z" fill="#88D6F7" p-id="2673"></path><path d="M841.8 998.5H177.2c-3.1 0-5.7-2.5-5.7-5.7V26.4c0-3.1 2.5-5.7 5.7-5.7h664.7c11.6 0 21.1 9.4 21.1 21.1v141.9c0 3.1-2.5 5.7-5.7 5.7s-5.7-2.5-5.7-5.7V41.9c0-5.5-4.2-9.7-9.7-9.7H183v955h658.9c5.5 0 9.7-4.2 9.7-9.7V223.3c0-3.1 2.5-5.7 5.7-5.7s5.7 2.5 5.7 5.7v754.1c-0.1 11.7-9.5 21.1-21.2 21.1z" fill="#1076BB" p-id="2674"></path><path d="M248.8 998.5c-3.1 0-5.7-2.5-5.7-5.7V26.4c0-3.1 2.5-5.7 5.7-5.7s5.7 2.5 5.7 5.7v966.4c0 3.2-2.6 5.7-5.7 5.7z" fill="#1076BB" p-id="2675"></path><path d="M857.3 681.4c-0.5 0-1.2-0.1-1.7-0.2l-75.1-23.4-175.3-54.4-202.5-63-16.3-5-36.5-11.3-21.5-6.7-64.9-20.1-16.3-5c-2.9-0.9-4.7-4.1-3.8-7s4.1-4.7 7-3.8l16.3 5 64.9 20.1 21.5 6.7 52.8 16.3 202.4 62.9 175.3 54.4 3.7 1.2 71.5 22.2c2.9 0.9 4.7 4.1 3.8 7.1-0.6 2.4-2.9 4-5.3 4z" fill="#1076BB" p-id="2676"></path><path d="M785.7 659.1c-3.1 0-5.7-2.5-5.7-5.7V425.9H612.5v172c0 3.1-2.5 5.7-5.7 5.7-3.1 0-5.7-2.5-5.7-5.7V420.2c0-3.1 2.5-5.7 5.7-5.7h178.9c3.1 0 5.7 2.5 5.7 5.7v233.3c0.1 3.1-2.5 5.6-5.7 5.6z" fill="#1076BB" p-id="2677"></path><path d="M530.4 579.8c-1.9 0-3.9-1-4.9-2.8l-60.3-104.3-18.4-31.7c-1.6-2.7-0.7-6.2 2.1-7.8l18.3-10.6 136.7-78.9c1.3-0.8 2.8-0.9 4.3-0.5 1.5 0.3 2.7 1.4 3.5 2.6l41.2 71.7c1.6 2.7 0.7 6.2-2.1 7.8-2.8 1.6-6.2 0.7-7.8-2.1l-38.4-66.7-131.8 76-13.3 7.8 15.4 26.8 60.3 104.3c1.6 2.7 0.7 6.2-2.1 7.8-0.8 0.4-1.7 0.6-2.7 0.6zM248.8 494.2h-71.5c-3.1 0-5.7-2.5-5.7-5.7 0-3.1 2.5-5.7 5.7-5.7h71.5c3.1 0 5.7 2.5 5.7 5.7s-2.6 5.7-5.7 5.7zM351.5 524.3c-3.1 0-5.7-2.5-5.7-5.7V303.8c0-1.3-1-2.3-2.3-2.3h-21.4c-3.1 0-5.7-2.5-5.7-5.7 0-3.1 2.5-5.7 5.7-5.7h21.4c7.6 0 13.6 6.2 13.6 13.6v214.8c0.1 3.3-2.4 5.8-5.6 5.8zM404.6 532.3h-13.1c-1.4 0-2.6-0.2-4-0.5h-0.2c-5.6-1.8-9.5-7.1-9.5-13.1V303.8c0-7.6 6.2-13.6 13.6-13.6h21.4c3.1 0 5.7 2.5 5.7 5.7 0 3.1-2.5 5.7-5.7 5.7h-21.4c-1.3 0-2.3 1-2.3 2.3v214.8c0 1 0.8 1.9 1.6 2.2 0.2 0.1 0.4 0.1 0.7 0.1h13.1c3.1 0 5.7 2.5 5.7 5.7 0.1 3-2.3 5.6-5.6 5.6z" fill="#1076BB" p-id="2678"></path><path d="M404.3 540.8h-0.2c-3.1-0.1-5.6-2.7-5.5-6l0.3-8.6 8.3-230.7 0.8-22.9h-81l0.8 22.9 7.9 216.2c0.1 3.1-2.4 5.8-5.5 6-3.1 0.1-5.8-2.4-6-5.5L316.4 296l-1-28.9c0-1.6 0.5-3 1.6-4.1 1-1.2 2.5-1.7 4.1-1.7h93c1.6 0 3 0.7 4.1 1.7 1 1.2 1.6 2.6 1.6 4.1l-1 28.9-8.3 230.7-0.3 8.6c-0.3 3.1-2.8 5.5-5.9 5.5zM893.9 229H814c-3.1 0-5.7-2.5-5.7-5.7v-39.6c0-3.1 2.5-5.7 5.7-5.7h79.9c3.1 0 5.7 2.5 5.7 5.7v39.6c-0.1 3.2-2.6 5.7-5.7 5.7z m-74.2-11.4h68.4v-28.1h-68.4v28.1z" fill="#1076BB" p-id="2679"></path><path d="M367.6 183.1c-6.8 0-12.4-5.6-12.4-12.4 0-6.8 5.6-12.4 12.4-12.4s12.4 5.6 12.4 12.4c0 6.9-5.6 12.4-12.4 12.4z m0-15.7c-1.8 0-3.4 1.5-3.4 3.4s1.5 3.4 3.4 3.4 3.4-1.5 3.4-3.4c-0.1-2-1.5-3.4-3.4-3.4z" fill="#1076BB" p-id="2680"></path><path d="M367.6 164.8c-2.8 0-5.1-2.3-5.1-5.1v-93c0-2.8 2.3-5.1 5.1-5.1s5.1 2.3 5.1 5.1v93c0 2.8-2.3 5.1-5.1 5.1zM246.4 520.5h-22.8c-2.5 0-4.5-2.1-4.5-4.5s2.1-4.5 4.5-4.5h22.8c2.5 0 4.5 2.1 4.5 4.5s-2 4.5-4.5 4.5z m-45.7 0H178c-2.5 0-4.5-2.1-4.5-4.5s2.1-4.5 4.5-4.5h22.8c2.5 0 4.5 2.1 4.5 4.5s-2.1 4.5-4.6 4.5z" fill="#1076BB" p-id="2681"></path><path d="M278.9 527c-0.4 0-0.9-0.1-1.4-0.2l-10.9-3.5c-2.4-0.8-3.8-3.4-2.9-5.7 0.8-2.4 3.4-3.8 5.7-2.9l10.9 3.5c2.4 0.8 3.8 3.4 2.9 5.7-0.6 1.9-2.4 3.1-4.3 3.1zM803.5 690c-0.4 0-0.9-0.1-1.4-0.2l-21.9-6.8c-2.4-0.8-3.8-3.4-2.9-5.7s3.4-3.8 5.7-2.9l21.9 6.8c2.4 0.8 3.8 3.4 2.9 5.7-0.5 1.8-2.3 3.1-4.3 3.1z m-43.7-13.5c-0.4 0-0.9-0.1-1.4-0.2l-21.9-6.8c-2.4-0.8-3.8-3.4-2.9-5.7s3.4-3.8 5.7-2.9l21.9 6.8c2.4 0.8 3.8 3.4 2.9 5.7-0.6 1.8-2.4 3.1-4.3 3.1zM716 662.9c-0.4 0-0.9-0.1-1.4-0.2l-21.9-6.8c-2.4-0.8-3.8-3.4-2.9-5.7 0.8-2.3 3.4-3.8 5.7-2.9l21.9 6.8c2.4 0.8 3.8 3.4 2.9 5.7-0.5 1.9-2.3 3.1-4.3 3.1z m-43.7-13.6c-0.4 0-0.9-0.1-1.4-0.2l-21.9-6.8c-2.4-0.8-3.8-3.4-2.9-5.7s3.4-3.8 5.7-2.9l21.9 6.8c2.4 0.8 3.8 3.4 2.9 5.7-0.5 1.8-2.3 3.1-4.3 3.1z m-43.7-13.6c-0.4 0-0.9-0.1-1.4-0.2l-21.9-6.8c-2.4-0.8-3.8-3.4-2.9-5.7 0.8-2.4 3.4-3.8 5.7-2.9l21.9 6.8c2.4 0.8 3.8 3.4 2.9 5.7-0.5 1.9-2.4 3.1-4.3 3.1z m-43.7-13.6c-0.4 0-0.9-0.1-1.4-0.2l-21.9-6.8c-2.4-0.8-3.8-3.4-2.9-5.7s3.4-3.8 5.7-2.9l21.9 6.8c2.4 0.8 3.8 3.4 2.9 5.7-0.6 1.8-2.4 3.1-4.3 3.1z m-43.7-13.6c-0.4 0-0.9-0.1-1.4-0.2l-21.9-6.8c-2.4-0.8-3.8-3.4-2.9-5.7 0.8-2.3 3.4-3.8 5.7-2.9l21.9 6.8c2.4 0.8 3.8 3.4 2.9 5.7-0.7 1.8-2.3 3.1-4.3 3.1z m-43.8-13.6c-0.4 0-0.9-0.1-1.4-0.2l-21.9-6.8c-2.4-0.8-3.8-3.4-2.9-5.7 0.8-2.4 3.4-3.8 5.7-2.9l21.9 6.8c2.4 0.8 3.8 3.4 2.9 5.7-0.5 1.9-2.4 3.1-4.3 3.1z m-43.7-13.5c-0.4 0-0.9-0.1-1.4-0.2l-21.9-6.8c-2.4-0.8-3.8-3.4-2.9-5.7 0.8-2.4 3.4-3.8 5.7-2.9l21.9 6.8c2.4 0.8 3.8 3.4 2.9 5.7-0.5 1.8-2.4 3.1-4.3 3.1z m-43.8-13.7c-0.4 0-0.9-0.1-1.4-0.2l-21.9-6.8c-2.4-0.8-3.8-3.4-2.9-5.7 0.8-2.4 3.4-3.8 5.7-2.9l21.9 6.8c2.4 0.8 3.8 3.4 2.9 5.7-0.5 1.9-2.3 3.1-4.3 3.1z m-43.7-13.5c-0.4 0-0.9-0.1-1.4-0.2l-21.9-6.8c-2.4-0.8-3.8-3.4-2.9-5.7 0.8-2.4 3.4-3.8 5.7-2.9l21.9 6.8c2.4 0.8 3.8 3.4 2.9 5.7-0.5 1.8-2.3 3.1-4.3 3.1z m-43.6-13.5c-0.4 0-0.9-0.1-1.4-0.2l-21.9-6.8c-2.4-0.8-3.8-3.4-2.9-5.7 0.8-2.4 3.4-3.8 5.7-2.9l21.9 6.8c2.4 0.8 3.8 3.4 2.9 5.7-0.6 1.8-2.4 3.1-4.3 3.1zM836.3 700.2c-0.4 0-0.9-0.1-1.4-0.2l-10.8-3.4c-2.4-0.7-3.8-3.4-3-5.7s3.4-3.8 5.7-3l10.8 3.4c2.4 0.7 3.8 3.4 3 5.7-0.6 1.9-2.4 3.2-4.3 3.2z" fill="#1076BB" p-id="2682"></path><path d="M567 587.5v154.8c0 19.7 16 35.7 35.8 35.7s35.8-16.1 35.8-35.8V611.1L567 587.5z" fill="#FFFFFF" p-id="2683"></path><path d="M602.8 783.8c-22.9 0-41.6-18.6-41.6-41.6V587.5c0-1.8 0.9-3.6 2.4-4.7 1.5-1 3.5-1.4 5.1-0.8l71.7 23.6c2.3 0.8 3.9 2.9 3.9 5.4v131c0 23.2-18.6 41.8-41.5 41.8z m-30.2-188.5v146.9c0 16.7 13.4 30.1 30.1 30.1s30.1-13.4 30.1-30.1v-127l-60.2-19.9z" fill="#1076BB" p-id="2684"></path><path d="M810.9 245.1H667.7c-3.1 0-5.7-2.5-5.7-5.7v-71.7c0-3.1 2.5-5.7 5.7-5.7h143.1c3.1 0 5.7 2.5 5.7 5.7v71.7c0 3.2-2.5 5.7-5.6 5.7z m-137.5-11.4h131.7v-60.2H673.4v60.2zM727.5 460H641c-3.1 0-5.7-2.5-5.7-5.7 0-3.1 2.5-5.7 5.7-5.7h86.5c3.1 0 5.7 2.5 5.7 5.7 0 3.1-2.4 5.7-5.7 5.7zM746 497.4h-83.6c-3.1 0-5.7-2.5-5.7-5.7s2.5-5.7 5.7-5.7H746c3.1 0 5.7 2.5 5.7 5.7s-2.4 5.7-5.7 5.7zM727.5 533.2H641c-3.1 0-5.7-2.5-5.7-5.7 0-3.1 2.5-5.7 5.7-5.7h86.5c3.1 0 5.7 2.5 5.7 5.7s-2.4 5.7-5.7 5.7zM746 569.3h-31.9c-3.1 0-5.7-2.5-5.7-5.7 0-3.1 2.5-5.7 5.7-5.7H746c3.1 0 5.7 2.5 5.7 5.7s-2.4 5.7-5.7 5.7zM460.1 927H323.8c-5.1 0-9.1-4-9.1-9.1v-29c0-5.1 4-9.1 9.1-9.1h136.3c5.1 0 9.1 4 9.1 9.1v29c0 5.1-4 9.1-9.1 9.1z m-134-11.5h131.7V891H326.1v24.5z" fill="#1076BB" p-id="2685"></path></svg>